<svg height="512pt" viewBox="-78 0 512 512.00018" width="512pt" xmlns="http://www.w3.org/2000/svg"><path d="m340 59.003906h-30c-8.285156 0-15 6.714844-15 15s6.714844 15 15 15h30c8.285156 0 15-6.714844 15-15s-6.714844-15-15-15zm0 0"/><path d="m280 47.992188c2.363281 1.363281 4.941406 2.011718 7.484375 2.011718 5.1875 0 10.226563-2.6875 13.003906-7.5l11.546875-20c4.144532-7.175781 1.6875-16.347656-5.488281-20.492187-7.175781-4.140625-16.347656-1.683594-20.488281 5.492187l-11.546875 20c-4.144531 7.171875-1.6875 16.347656 5.488281 20.488282zm0 0"/><path d="m274.511719 120.503906 11.546875 20c2.777344 4.8125 7.820312 7.5 13.003906 7.5 2.542969 0 5.121094-.648437 7.484375-2.011718 7.175781-4.140626 9.632813-13.316407 5.488281-20.488282l-11.546875-20c-4.140625-7.175781-13.3125-9.632812-20.488281-5.492187-7.175781 4.144531-9.632812 13.316406-5.488281 20.492187zm0 0"/><path d="m250 178.882812v-44.882812c0-8.285156-6.714844-15-15-15h-45v-15c0-8.269531 6.730469-15 15-15h60c8.285156 0 15-6.714844 15-15s-6.714844-15-15-15h-60c-24.8125 0-45 20.1875-45 45v15h-45c-8.285156 0-15 6.714844-15 15v44.882812c-27.886719 13.226563-51.730469 33.511719-69.351562 59.167969-20.050782 29.195313-30.648438 63.410157-30.648438 98.949219 0 96.496094 78.503906 175 175 175s175-78.503906 175-175c0-35.539062-10.597656-69.753906-30.648438-98.949219-17.621093-25.65625-41.464843-45.941406-69.351562-59.167969zm25 173.117188c-8.285156 0-15-6.714844-15-15 0-46.867188-38.132812-85-85-85-8.285156 0-15-6.714844-15-15s6.714844-15 15-15c63.410156 0 115 51.589844 115 115 0 8.285156-6.714844 15-15 15zm0 0"/></svg>